<?xml version="1.0" encoding="UTF-8"?>
<svg width="64" height="64" viewBox="0 0 64 64" xmlns="http://www.w3.org/2000/svg">
  <!-- Plate/Circle Background -->
  <circle cx="32" cy="32" r="30" fill="#f5f5f5" stroke="#4CAF50" stroke-width="2"/>
  
  <!-- Wheat/Corn Stalks -->
  <g transform="translate(16, 16) scale(0.9)">
    <!-- Left Stalk -->
    <path d="M20,45 C20,25 15,15 15,5" stroke="#FF6B35" stroke-width="2" fill="none"/>
    <path d="M15,8 C12,10 10,8 10,5" stroke="#FF6B35" stroke-width="1.5" fill="none"/>
    <path d="M15,15 C12,17 10,15 10,12" stroke="#FF6B35" stroke-width="1.5" fill="none"/>
    
    <!-- Right Stalk -->
    <path d="M25,45 C25,25 30,15 30,5" stroke="#FF6B35" stroke-width="2" fill="none"/>
    <path d="M30,8 C33,10 35,8 35,5" stroke="#FF6B35" stroke-width="1.5" fill="none"/>
    <path d="M30,15 C33,17 35,15 35,12" stroke="#FF6B35" stroke-width="1.5" fill="none"/>
    
    <!-- Middle Stalk -->
    <path d="M22.5,45 C22.5,25 22.5,15 22.5,2" stroke="#FF6B35" stroke-width="2" fill="none"/>
  </g>
  
  <!-- Fork -->
  <path d="M40,50 C40,40 45,35 45,25 L50,25 L50,35 L47,35 L47,50 Z" fill="#666" stroke="#444" stroke-width="1"/>
</svg>